<mxfile host="app.diagrams.net" modified="2024-11-06T01:59:18.755Z" agent="Mozilla/5.0 (Windows NT 10.0; Win64; x64) AppleWebKit/537.36 (KHTML, like Gecko) Chrome/130.0.0.0 Safari/537.36" etag="cmpqZOU9rmctANJpnDpL" version="24.2.1" type="device">
  <diagram name="Page-1" id="42789a77-a242-8287-6e28-9cd8cfd52e62">
    <mxGraphModel dx="1310" dy="721" grid="1" gridSize="10" guides="1" tooltips="1" connect="1" arrows="1" fold="1" page="1" pageScale="1" pageWidth="1100" pageHeight="850" background="none" math="0" shadow="0">
      <root>
        <mxCell id="0" />
        <mxCell id="1" parent="0" />
        <mxCell id="1ea317790d2ca983-2" value="&lt;span&gt;e: 3&lt;/span&gt;" style="ellipse;whiteSpace=wrap;html=1;rounded=0;shadow=1;comic=0;labelBackgroundColor=none;strokeWidth=1;fontFamily=Verdana;fontSize=12;align=center;" parent="1" vertex="1">
          <mxGeometry x="200" y="720" width="40" height="40" as="geometry" />
        </mxCell>
        <mxCell id="1ea317790d2ca983-5" value="&lt;span&gt;u: 2&lt;/span&gt;" style="ellipse;whiteSpace=wrap;html=1;rounded=0;shadow=1;comic=0;labelBackgroundColor=none;strokeWidth=1;fontFamily=Verdana;fontSize=12;align=center;" parent="1" vertex="1">
          <mxGeometry x="440" y="720" width="42.5" height="40" as="geometry" />
        </mxCell>
        <mxCell id="1ea317790d2ca983-7" value="&lt;span&gt;o: 4&lt;/span&gt;" style="ellipse;whiteSpace=wrap;html=1;rounded=0;shadow=1;comic=0;labelBackgroundColor=none;strokeWidth=1;fontFamily=Verdana;fontSize=12;align=center;" parent="1" vertex="1">
          <mxGeometry x="140" y="720" width="40" height="40" as="geometry" />
        </mxCell>
        <mxCell id="1ea317790d2ca983-8" value="t: 2" style="ellipse;whiteSpace=wrap;html=1;rounded=0;shadow=1;comic=0;labelBackgroundColor=none;strokeWidth=1;fontFamily=Verdana;fontSize=12;align=center;" parent="1" vertex="1">
          <mxGeometry x="380" y="720" width="40" height="40" as="geometry" />
        </mxCell>
        <mxCell id="1ea317790d2ca983-10" value="&lt;span&gt;r: 2&lt;/span&gt;" style="ellipse;whiteSpace=wrap;html=1;rounded=0;shadow=1;comic=0;labelBackgroundColor=none;strokeWidth=1;fontFamily=Verdana;fontSize=12;align=center;" parent="1" vertex="1">
          <mxGeometry x="320" y="720" width="40" height="40" as="geometry" />
        </mxCell>
        <mxCell id="1ea317790d2ca983-11" value="&lt;span&gt;h: 2&lt;/span&gt;" style="ellipse;whiteSpace=wrap;html=1;rounded=0;shadow=1;comic=0;labelBackgroundColor=none;strokeWidth=1;fontFamily=Verdana;fontSize=12;align=center;" parent="1" vertex="1">
          <mxGeometry x="260" y="720" width="40" height="40" as="geometry" />
        </mxCell>
        <mxCell id="1wDj2o99ksEneMRlYEZa-2" value="&lt;span&gt;a: 1&lt;/span&gt;" style="ellipse;whiteSpace=wrap;html=1;rounded=0;shadow=1;comic=0;labelBackgroundColor=none;strokeWidth=1;fontFamily=Verdana;fontSize=12;align=center;" vertex="1" parent="1">
          <mxGeometry x="500" y="720" width="40" height="40" as="geometry" />
        </mxCell>
        <mxCell id="1wDj2o99ksEneMRlYEZa-3" value="&lt;span&gt;b: 1&lt;/span&gt;" style="ellipse;whiteSpace=wrap;html=1;rounded=0;shadow=1;comic=0;labelBackgroundColor=none;strokeWidth=1;fontFamily=Verdana;fontSize=12;align=center;" vertex="1" parent="1">
          <mxGeometry x="560" y="720" width="40" height="40" as="geometry" />
        </mxCell>
        <mxCell id="1wDj2o99ksEneMRlYEZa-4" value="&lt;span&gt;c: 1&lt;/span&gt;" style="ellipse;whiteSpace=wrap;html=1;rounded=0;shadow=1;comic=0;labelBackgroundColor=none;strokeWidth=1;fontFamily=Verdana;fontSize=12;align=center;" vertex="1" parent="1">
          <mxGeometry x="620" y="720" width="40" height="40" as="geometry" />
        </mxCell>
        <mxCell id="1wDj2o99ksEneMRlYEZa-5" value="&lt;span&gt;d: 1&lt;/span&gt;" style="ellipse;whiteSpace=wrap;html=1;rounded=0;shadow=1;comic=0;labelBackgroundColor=none;strokeWidth=1;fontFamily=Verdana;fontSize=12;align=center;" vertex="1" parent="1">
          <mxGeometry x="680" y="720" width="40" height="40" as="geometry" />
        </mxCell>
        <mxCell id="1wDj2o99ksEneMRlYEZa-6" value="&lt;span&gt;f: 1&lt;/span&gt;" style="ellipse;whiteSpace=wrap;html=1;rounded=0;shadow=1;comic=0;labelBackgroundColor=none;strokeWidth=1;fontFamily=Verdana;fontSize=12;align=center;" vertex="1" parent="1">
          <mxGeometry x="740" y="720" width="40" height="40" as="geometry" />
        </mxCell>
        <mxCell id="1wDj2o99ksEneMRlYEZa-7" value="&lt;span&gt;g: 1&lt;/span&gt;" style="ellipse;whiteSpace=wrap;html=1;rounded=0;shadow=1;comic=0;labelBackgroundColor=none;strokeWidth=1;fontFamily=Verdana;fontSize=12;align=center;" vertex="1" parent="1">
          <mxGeometry x="800" y="720" width="40" height="40" as="geometry" />
        </mxCell>
        <mxCell id="1wDj2o99ksEneMRlYEZa-8" value="&lt;span&gt;i&lt;/span&gt;&lt;span style=&quot;background-color: initial;&quot;&gt;: 1&lt;/span&gt;" style="ellipse;whiteSpace=wrap;html=1;rounded=0;shadow=1;comic=0;labelBackgroundColor=none;strokeWidth=1;fontFamily=Verdana;fontSize=12;align=center;" vertex="1" parent="1">
          <mxGeometry x="860" y="720" width="40" height="40" as="geometry" />
        </mxCell>
        <mxCell id="1wDj2o99ksEneMRlYEZa-9" value="&lt;span&gt;j: 1&lt;/span&gt;" style="ellipse;whiteSpace=wrap;html=1;rounded=0;shadow=1;comic=0;labelBackgroundColor=none;strokeWidth=1;fontFamily=Verdana;fontSize=12;align=center;" vertex="1" parent="1">
          <mxGeometry x="920" y="720" width="40" height="40" as="geometry" />
        </mxCell>
        <mxCell id="1wDj2o99ksEneMRlYEZa-10" value="&lt;span&gt;k: 1&lt;/span&gt;" style="ellipse;whiteSpace=wrap;html=1;rounded=0;shadow=1;comic=0;labelBackgroundColor=none;strokeWidth=1;fontFamily=Verdana;fontSize=12;align=center;" vertex="1" parent="1">
          <mxGeometry x="980" y="720" width="40" height="40" as="geometry" />
        </mxCell>
        <mxCell id="1wDj2o99ksEneMRlYEZa-11" value="&lt;span&gt;l: 1&lt;/span&gt;" style="ellipse;whiteSpace=wrap;html=1;rounded=0;shadow=1;comic=0;labelBackgroundColor=none;strokeWidth=1;fontFamily=Verdana;fontSize=12;align=center;" vertex="1" parent="1">
          <mxGeometry x="1040" y="720" width="40" height="40" as="geometry" />
        </mxCell>
        <mxCell id="1wDj2o99ksEneMRlYEZa-12" value="&lt;span&gt;m: 1&lt;/span&gt;" style="ellipse;whiteSpace=wrap;html=1;rounded=0;shadow=1;comic=0;labelBackgroundColor=none;strokeWidth=1;fontFamily=Verdana;fontSize=12;align=center;" vertex="1" parent="1">
          <mxGeometry x="1100" y="720" width="40" height="40" as="geometry" />
        </mxCell>
        <mxCell id="1wDj2o99ksEneMRlYEZa-13" value="&lt;span&gt;n: 1&lt;/span&gt;" style="ellipse;whiteSpace=wrap;html=1;rounded=0;shadow=1;comic=0;labelBackgroundColor=none;strokeWidth=1;fontFamily=Verdana;fontSize=12;align=center;" vertex="1" parent="1">
          <mxGeometry x="1160" y="720" width="40" height="40" as="geometry" />
        </mxCell>
        <mxCell id="1wDj2o99ksEneMRlYEZa-14" value="&lt;span&gt;p: 1&lt;/span&gt;" style="ellipse;whiteSpace=wrap;html=1;rounded=0;shadow=1;comic=0;labelBackgroundColor=none;strokeWidth=1;fontFamily=Verdana;fontSize=12;align=center;" vertex="1" parent="1">
          <mxGeometry x="1280" y="720" width="40" height="40" as="geometry" />
        </mxCell>
        <mxCell id="1wDj2o99ksEneMRlYEZa-15" value="&lt;span&gt;q: 1&lt;/span&gt;" style="ellipse;whiteSpace=wrap;html=1;rounded=0;shadow=1;comic=0;labelBackgroundColor=none;strokeWidth=1;fontFamily=Verdana;fontSize=12;align=center;" vertex="1" parent="1">
          <mxGeometry x="1340" y="720" width="40" height="40" as="geometry" />
        </mxCell>
        <mxCell id="1wDj2o99ksEneMRlYEZa-16" value="&lt;span&gt;s: 1&lt;/span&gt;" style="ellipse;whiteSpace=wrap;html=1;rounded=0;shadow=1;comic=0;labelBackgroundColor=none;strokeWidth=1;fontFamily=Verdana;fontSize=12;align=center;" vertex="1" parent="1">
          <mxGeometry x="1400" y="720" width="40" height="40" as="geometry" />
        </mxCell>
        <mxCell id="1wDj2o99ksEneMRlYEZa-17" value="&lt;span&gt;v: 1&lt;/span&gt;" style="ellipse;whiteSpace=wrap;html=1;rounded=0;shadow=1;comic=0;labelBackgroundColor=none;strokeWidth=1;fontFamily=Verdana;fontSize=12;align=center;" vertex="1" parent="1">
          <mxGeometry x="1460" y="720" width="40" height="40" as="geometry" />
        </mxCell>
        <mxCell id="1wDj2o99ksEneMRlYEZa-18" value="&lt;span&gt;w: 1&lt;/span&gt;" style="ellipse;whiteSpace=wrap;html=1;rounded=0;shadow=1;comic=0;labelBackgroundColor=none;strokeWidth=1;fontFamily=Verdana;fontSize=12;align=center;" vertex="1" parent="1">
          <mxGeometry x="1520" y="720" width="40" height="40" as="geometry" />
        </mxCell>
        <mxCell id="1wDj2o99ksEneMRlYEZa-19" value="&lt;span&gt;x: 1&lt;/span&gt;" style="ellipse;whiteSpace=wrap;html=1;rounded=0;shadow=1;comic=0;labelBackgroundColor=none;strokeWidth=1;fontFamily=Verdana;fontSize=12;align=center;" vertex="1" parent="1">
          <mxGeometry x="1580" y="720" width="40" height="40" as="geometry" />
        </mxCell>
        <mxCell id="1wDj2o99ksEneMRlYEZa-20" value="&lt;span&gt;y: 1&lt;/span&gt;" style="ellipse;whiteSpace=wrap;html=1;rounded=0;shadow=1;comic=0;labelBackgroundColor=none;strokeWidth=1;fontFamily=Verdana;fontSize=12;align=center;" vertex="1" parent="1">
          <mxGeometry x="1640" y="720" width="40" height="40" as="geometry" />
        </mxCell>
        <mxCell id="1wDj2o99ksEneMRlYEZa-21" value="&lt;span&gt;z: 1&lt;/span&gt;" style="ellipse;whiteSpace=wrap;html=1;rounded=0;shadow=1;comic=0;labelBackgroundColor=none;strokeWidth=1;fontFamily=Verdana;fontSize=12;align=center;" vertex="1" parent="1">
          <mxGeometry x="1700" y="720" width="40" height="40" as="geometry" />
        </mxCell>
        <mxCell id="1wDj2o99ksEneMRlYEZa-22" value="&lt;span&gt;2&lt;/span&gt;" style="ellipse;whiteSpace=wrap;html=1;rounded=0;shadow=1;comic=0;labelBackgroundColor=none;strokeWidth=1;fontFamily=Verdana;fontSize=12;align=center;" vertex="1" parent="1">
          <mxGeometry x="1664" y="660" width="40" height="40" as="geometry" />
        </mxCell>
        <mxCell id="1wDj2o99ksEneMRlYEZa-23" value="&lt;span&gt;2&lt;/span&gt;" style="ellipse;whiteSpace=wrap;html=1;rounded=0;shadow=1;comic=0;labelBackgroundColor=none;strokeWidth=1;fontFamily=Verdana;fontSize=12;align=center;" vertex="1" parent="1">
          <mxGeometry x="1556" y="660" width="40" height="40" as="geometry" />
        </mxCell>
        <mxCell id="1wDj2o99ksEneMRlYEZa-24" value="&lt;span&gt;2&lt;/span&gt;" style="ellipse;whiteSpace=wrap;html=1;rounded=0;shadow=1;comic=0;labelBackgroundColor=none;strokeWidth=1;fontFamily=Verdana;fontSize=12;align=center;" vertex="1" parent="1">
          <mxGeometry x="1424" y="660" width="40" height="40" as="geometry" />
        </mxCell>
        <mxCell id="1wDj2o99ksEneMRlYEZa-25" value="&lt;span&gt;2&lt;/span&gt;" style="ellipse;whiteSpace=wrap;html=1;rounded=0;shadow=1;comic=0;labelBackgroundColor=none;strokeWidth=1;fontFamily=Verdana;fontSize=12;align=center;" vertex="1" parent="1">
          <mxGeometry x="1316" y="660" width="40" height="40" as="geometry" />
        </mxCell>
        <mxCell id="1wDj2o99ksEneMRlYEZa-26" value="&lt;span&gt;2&lt;/span&gt;" style="ellipse;whiteSpace=wrap;html=1;rounded=0;shadow=1;comic=0;labelBackgroundColor=none;strokeWidth=1;fontFamily=Verdana;fontSize=12;align=center;" vertex="1" parent="1">
          <mxGeometry x="1124" y="660" width="40" height="40" as="geometry" />
        </mxCell>
        <mxCell id="1wDj2o99ksEneMRlYEZa-27" value="&lt;span&gt;2&lt;/span&gt;" style="ellipse;whiteSpace=wrap;html=1;rounded=0;shadow=1;comic=0;labelBackgroundColor=none;strokeWidth=1;fontFamily=Verdana;fontSize=12;align=center;" vertex="1" parent="1">
          <mxGeometry x="1016" y="660" width="40" height="40" as="geometry" />
        </mxCell>
        <mxCell id="1wDj2o99ksEneMRlYEZa-28" value="&lt;span&gt;2&lt;/span&gt;" style="ellipse;whiteSpace=wrap;html=1;rounded=0;shadow=1;comic=0;labelBackgroundColor=none;strokeWidth=1;fontFamily=Verdana;fontSize=12;align=center;" vertex="1" parent="1">
          <mxGeometry x="884" y="660" width="40" height="40" as="geometry" />
        </mxCell>
        <mxCell id="1wDj2o99ksEneMRlYEZa-29" value="&lt;span&gt;2&lt;/span&gt;" style="ellipse;whiteSpace=wrap;html=1;rounded=0;shadow=1;comic=0;labelBackgroundColor=none;strokeWidth=1;fontFamily=Verdana;fontSize=12;align=center;" vertex="1" parent="1">
          <mxGeometry x="776" y="660" width="40" height="40" as="geometry" />
        </mxCell>
        <mxCell id="1wDj2o99ksEneMRlYEZa-30" value="&lt;span&gt;2&lt;/span&gt;" style="ellipse;whiteSpace=wrap;html=1;rounded=0;shadow=1;comic=0;labelBackgroundColor=none;strokeWidth=1;fontFamily=Verdana;fontSize=12;align=center;" vertex="1" parent="1">
          <mxGeometry x="644" y="660" width="40" height="40" as="geometry" />
        </mxCell>
        <mxCell id="1wDj2o99ksEneMRlYEZa-31" value="&lt;span&gt;2&lt;/span&gt;" style="ellipse;whiteSpace=wrap;html=1;rounded=0;shadow=1;comic=0;labelBackgroundColor=none;strokeWidth=1;fontFamily=Verdana;fontSize=12;align=center;" vertex="1" parent="1">
          <mxGeometry x="536" y="660" width="40" height="40" as="geometry" />
        </mxCell>
        <mxCell id="1wDj2o99ksEneMRlYEZa-32" value="&lt;span&gt;4&lt;/span&gt;" style="ellipse;whiteSpace=wrap;html=1;rounded=0;shadow=1;comic=0;labelBackgroundColor=none;strokeWidth=1;fontFamily=Verdana;fontSize=12;align=center;" vertex="1" parent="1">
          <mxGeometry x="416" y="600" width="40" height="40" as="geometry" />
        </mxCell>
        <mxCell id="1wDj2o99ksEneMRlYEZa-33" value="&lt;span&gt;4&lt;/span&gt;" style="ellipse;whiteSpace=wrap;html=1;rounded=0;shadow=1;comic=0;labelBackgroundColor=none;strokeWidth=1;fontFamily=Verdana;fontSize=12;align=center;" vertex="1" parent="1">
          <mxGeometry x="284" y="600" width="40" height="40" as="geometry" />
        </mxCell>
        <mxCell id="1wDj2o99ksEneMRlYEZa-34" value="&lt;span&gt;4&lt;/span&gt;" style="ellipse;whiteSpace=wrap;html=1;rounded=0;shadow=1;comic=0;labelBackgroundColor=none;strokeWidth=1;fontFamily=Verdana;fontSize=12;align=center;" vertex="1" parent="1">
          <mxGeometry x="1604" y="600" width="40" height="40" as="geometry" />
        </mxCell>
        <mxCell id="1wDj2o99ksEneMRlYEZa-36" value="&lt;span&gt;4&lt;/span&gt;" style="ellipse;whiteSpace=wrap;html=1;rounded=0;shadow=1;comic=0;labelBackgroundColor=none;strokeWidth=1;fontFamily=Verdana;fontSize=12;align=center;" vertex="1" parent="1">
          <mxGeometry x="1376" y="600" width="40" height="40" as="geometry" />
        </mxCell>
        <mxCell id="1wDj2o99ksEneMRlYEZa-38" value="&lt;span&gt;4&lt;/span&gt;" style="ellipse;whiteSpace=wrap;html=1;rounded=0;shadow=1;comic=0;labelBackgroundColor=none;strokeWidth=1;fontFamily=Verdana;fontSize=12;align=center;" vertex="1" parent="1">
          <mxGeometry x="1064" y="600" width="40" height="40" as="geometry" />
        </mxCell>
        <mxCell id="1wDj2o99ksEneMRlYEZa-40" value="&lt;span&gt;4&lt;/span&gt;" style="ellipse;whiteSpace=wrap;html=1;rounded=0;shadow=1;comic=0;labelBackgroundColor=none;strokeWidth=1;fontFamily=Verdana;fontSize=12;align=center;" vertex="1" parent="1">
          <mxGeometry x="836" y="600" width="40" height="40" as="geometry" />
        </mxCell>
        <mxCell id="1wDj2o99ksEneMRlYEZa-42" value="&lt;span&gt;4&lt;/span&gt;" style="ellipse;whiteSpace=wrap;html=1;rounded=0;shadow=1;comic=0;labelBackgroundColor=none;strokeWidth=1;fontFamily=Verdana;fontSize=12;align=center;" vertex="1" parent="1">
          <mxGeometry x="584" y="600" width="40" height="40" as="geometry" />
        </mxCell>
        <mxCell id="1wDj2o99ksEneMRlYEZa-43" value="&lt;span&gt;7&lt;/span&gt;" style="ellipse;whiteSpace=wrap;html=1;rounded=0;shadow=1;comic=0;labelBackgroundColor=none;strokeWidth=1;fontFamily=Verdana;fontSize=12;align=center;" vertex="1" parent="1">
          <mxGeometry x="176" y="600" width="40" height="40" as="geometry" />
        </mxCell>
        <mxCell id="1wDj2o99ksEneMRlYEZa-52" value="&lt;span&gt;8&lt;/span&gt;" style="ellipse;whiteSpace=wrap;html=1;rounded=0;shadow=1;comic=0;labelBackgroundColor=none;strokeWidth=1;fontFamily=Verdana;fontSize=12;align=center;" vertex="1" parent="1">
          <mxGeometry x="1486" y="540" width="40" height="40" as="geometry" />
        </mxCell>
        <mxCell id="1wDj2o99ksEneMRlYEZa-54" value="&lt;span&gt;8&lt;/span&gt;" style="ellipse;whiteSpace=wrap;html=1;rounded=0;shadow=1;comic=0;labelBackgroundColor=none;strokeWidth=1;fontFamily=Verdana;fontSize=12;align=center;" vertex="1" parent="1">
          <mxGeometry x="946" y="540" width="40" height="40" as="geometry" />
        </mxCell>
        <mxCell id="1wDj2o99ksEneMRlYEZa-56" value="&lt;span&gt;8&lt;/span&gt;" style="ellipse;whiteSpace=wrap;html=1;rounded=0;shadow=1;comic=0;labelBackgroundColor=none;strokeWidth=1;fontFamily=Verdana;fontSize=12;align=center;" vertex="1" parent="1">
          <mxGeometry x="474" y="540" width="40" height="40" as="geometry" />
        </mxCell>
        <mxCell id="1wDj2o99ksEneMRlYEZa-57" value="&lt;span&gt;11&lt;/span&gt;" style="ellipse;whiteSpace=wrap;html=1;rounded=0;shadow=1;comic=0;labelBackgroundColor=none;strokeWidth=1;fontFamily=Verdana;fontSize=12;align=center;" vertex="1" parent="1">
          <mxGeometry x="238" y="440" width="40" height="40" as="geometry" />
        </mxCell>
        <mxCell id="1wDj2o99ksEneMRlYEZa-58" value="(32):8" style="ellipse;whiteSpace=wrap;html=1;rounded=0;shadow=1;comic=0;labelBackgroundColor=none;strokeWidth=1;fontFamily=Verdana;fontSize=12;align=center;" vertex="1" parent="1">
          <mxGeometry x="1220" y="720" width="40" height="40" as="geometry" />
        </mxCell>
        <mxCell id="1wDj2o99ksEneMRlYEZa-59" value="&lt;span&gt;16&lt;/span&gt;" style="ellipse;whiteSpace=wrap;html=1;rounded=0;shadow=1;comic=0;labelBackgroundColor=none;strokeWidth=1;fontFamily=Verdana;fontSize=12;align=center;" vertex="1" parent="1">
          <mxGeometry x="1140" y="440" width="40" height="40" as="geometry" />
        </mxCell>
        <mxCell id="1wDj2o99ksEneMRlYEZa-60" value="&lt;span&gt;16&lt;/span&gt;" style="ellipse;whiteSpace=wrap;html=1;rounded=0;shadow=1;comic=0;labelBackgroundColor=none;strokeWidth=1;fontFamily=Verdana;fontSize=12;align=center;" vertex="1" parent="1">
          <mxGeometry x="702" y="440" width="40" height="40" as="geometry" />
        </mxCell>
        <mxCell id="1wDj2o99ksEneMRlYEZa-61" value="&lt;span&gt;27&lt;/span&gt;" style="ellipse;whiteSpace=wrap;html=1;rounded=0;shadow=1;comic=0;labelBackgroundColor=none;strokeWidth=1;fontFamily=Verdana;fontSize=12;align=center;" vertex="1" parent="1">
          <mxGeometry x="460" y="300" width="40" height="40" as="geometry" />
        </mxCell>
        <mxCell id="1wDj2o99ksEneMRlYEZa-62" value="" style="endArrow=classic;html=1;rounded=0;exitX=0.5;exitY=1;exitDx=0;exitDy=0;entryX=0.5;entryY=0;entryDx=0;entryDy=0;" edge="1" parent="1" source="1wDj2o99ksEneMRlYEZa-43" target="1ea317790d2ca983-7">
          <mxGeometry width="50" height="50" relative="1" as="geometry">
            <mxPoint x="315" y="580" as="sourcePoint" />
            <mxPoint x="365" y="530" as="targetPoint" />
          </mxGeometry>
        </mxCell>
        <mxCell id="1wDj2o99ksEneMRlYEZa-63" value="" style="endArrow=classic;html=1;rounded=0;exitX=0.5;exitY=1;exitDx=0;exitDy=0;entryX=0.5;entryY=0;entryDx=0;entryDy=0;" edge="1" parent="1" source="1wDj2o99ksEneMRlYEZa-43" target="1ea317790d2ca983-2">
          <mxGeometry width="50" height="50" relative="1" as="geometry">
            <mxPoint x="200" y="710" as="sourcePoint" />
            <mxPoint x="170" y="730" as="targetPoint" />
          </mxGeometry>
        </mxCell>
        <mxCell id="1wDj2o99ksEneMRlYEZa-64" value="" style="endArrow=classic;html=1;rounded=0;exitX=0.5;exitY=1;exitDx=0;exitDy=0;entryX=0.5;entryY=0;entryDx=0;entryDy=0;" edge="1" parent="1" source="1wDj2o99ksEneMRlYEZa-33" target="1ea317790d2ca983-11">
          <mxGeometry width="50" height="50" relative="1" as="geometry">
            <mxPoint x="210" y="720" as="sourcePoint" />
            <mxPoint x="180" y="740" as="targetPoint" />
          </mxGeometry>
        </mxCell>
        <mxCell id="1wDj2o99ksEneMRlYEZa-65" value="" style="endArrow=classic;html=1;rounded=0;exitX=0.5;exitY=1;exitDx=0;exitDy=0;entryX=0.5;entryY=0;entryDx=0;entryDy=0;" edge="1" parent="1" source="1wDj2o99ksEneMRlYEZa-33" target="1ea317790d2ca983-10">
          <mxGeometry width="50" height="50" relative="1" as="geometry">
            <mxPoint x="320" y="710" as="sourcePoint" />
            <mxPoint x="290" y="730" as="targetPoint" />
          </mxGeometry>
        </mxCell>
        <mxCell id="1wDj2o99ksEneMRlYEZa-66" value="" style="endArrow=classic;html=1;rounded=0;exitX=0.5;exitY=1;exitDx=0;exitDy=0;entryX=0.5;entryY=0;entryDx=0;entryDy=0;" edge="1" parent="1" source="1wDj2o99ksEneMRlYEZa-32" target="1ea317790d2ca983-8">
          <mxGeometry width="50" height="50" relative="1" as="geometry">
            <mxPoint x="320" y="710" as="sourcePoint" />
            <mxPoint x="350" y="730" as="targetPoint" />
          </mxGeometry>
        </mxCell>
        <mxCell id="1wDj2o99ksEneMRlYEZa-67" value="" style="endArrow=classic;html=1;rounded=0;exitX=0.5;exitY=1;exitDx=0;exitDy=0;entryX=0.5;entryY=0;entryDx=0;entryDy=0;" edge="1" parent="1" source="1wDj2o99ksEneMRlYEZa-32" target="1ea317790d2ca983-5">
          <mxGeometry width="50" height="50" relative="1" as="geometry">
            <mxPoint x="440" y="710" as="sourcePoint" />
            <mxPoint x="410" y="730" as="targetPoint" />
          </mxGeometry>
        </mxCell>
        <mxCell id="1wDj2o99ksEneMRlYEZa-68" value="" style="endArrow=classic;html=1;rounded=0;exitX=0.5;exitY=1;exitDx=0;exitDy=0;entryX=0.5;entryY=0;entryDx=0;entryDy=0;" edge="1" parent="1" source="1wDj2o99ksEneMRlYEZa-31" target="1wDj2o99ksEneMRlYEZa-2">
          <mxGeometry width="50" height="50" relative="1" as="geometry">
            <mxPoint x="550" y="700" as="sourcePoint" />
            <mxPoint x="581" y="720" as="targetPoint" />
          </mxGeometry>
        </mxCell>
        <mxCell id="1wDj2o99ksEneMRlYEZa-69" value="" style="endArrow=classic;html=1;rounded=0;exitX=0.5;exitY=1;exitDx=0;exitDy=0;entryX=0.5;entryY=0;entryDx=0;entryDy=0;" edge="1" parent="1" source="1wDj2o99ksEneMRlYEZa-31" target="1wDj2o99ksEneMRlYEZa-3">
          <mxGeometry width="50" height="50" relative="1" as="geometry">
            <mxPoint x="560" y="710" as="sourcePoint" />
            <mxPoint x="530" y="730" as="targetPoint" />
          </mxGeometry>
        </mxCell>
        <mxCell id="1wDj2o99ksEneMRlYEZa-70" value="" style="endArrow=classic;html=1;rounded=0;exitX=0.5;exitY=1;exitDx=0;exitDy=0;entryX=0.5;entryY=0;entryDx=0;entryDy=0;" edge="1" parent="1" source="1wDj2o99ksEneMRlYEZa-30" target="1wDj2o99ksEneMRlYEZa-5">
          <mxGeometry width="50" height="50" relative="1" as="geometry">
            <mxPoint x="670" y="700" as="sourcePoint" />
            <mxPoint x="700" y="720" as="targetPoint" />
          </mxGeometry>
        </mxCell>
        <mxCell id="1wDj2o99ksEneMRlYEZa-71" value="" style="endArrow=classic;html=1;rounded=0;exitX=0.5;exitY=1;exitDx=0;exitDy=0;entryX=0.5;entryY=0;entryDx=0;entryDy=0;" edge="1" parent="1" source="1wDj2o99ksEneMRlYEZa-30" target="1wDj2o99ksEneMRlYEZa-4">
          <mxGeometry width="50" height="50" relative="1" as="geometry">
            <mxPoint x="680" y="710" as="sourcePoint" />
            <mxPoint x="710" y="730" as="targetPoint" />
          </mxGeometry>
        </mxCell>
        <mxCell id="1wDj2o99ksEneMRlYEZa-72" value="" style="endArrow=classic;html=1;rounded=0;exitX=0.5;exitY=1;exitDx=0;exitDy=0;entryX=0.5;entryY=0;entryDx=0;entryDy=0;" edge="1" parent="1" source="1wDj2o99ksEneMRlYEZa-29" target="1wDj2o99ksEneMRlYEZa-6">
          <mxGeometry width="50" height="50" relative="1" as="geometry">
            <mxPoint x="745" y="680" as="sourcePoint" />
            <mxPoint x="715" y="700" as="targetPoint" />
          </mxGeometry>
        </mxCell>
        <mxCell id="1wDj2o99ksEneMRlYEZa-73" value="" style="endArrow=classic;html=1;rounded=0;exitX=0.5;exitY=1;exitDx=0;exitDy=0;entryX=0.5;entryY=0;entryDx=0;entryDy=0;" edge="1" parent="1" source="1wDj2o99ksEneMRlYEZa-29" target="1wDj2o99ksEneMRlYEZa-7">
          <mxGeometry width="50" height="50" relative="1" as="geometry">
            <mxPoint x="800" y="710" as="sourcePoint" />
            <mxPoint x="770" y="730" as="targetPoint" />
          </mxGeometry>
        </mxCell>
        <mxCell id="1wDj2o99ksEneMRlYEZa-74" value="" style="endArrow=classic;html=1;rounded=0;exitX=0.5;exitY=1;exitDx=0;exitDy=0;entryX=0.5;entryY=0;entryDx=0;entryDy=0;" edge="1" parent="1" source="1wDj2o99ksEneMRlYEZa-28" target="1wDj2o99ksEneMRlYEZa-8">
          <mxGeometry width="50" height="50" relative="1" as="geometry">
            <mxPoint x="850" y="680" as="sourcePoint" />
            <mxPoint x="880" y="700" as="targetPoint" />
          </mxGeometry>
        </mxCell>
        <mxCell id="1wDj2o99ksEneMRlYEZa-75" value="" style="endArrow=classic;html=1;rounded=0;exitX=0.5;exitY=1;exitDx=0;exitDy=0;entryX=0.5;entryY=0;entryDx=0;entryDy=0;" edge="1" parent="1" source="1wDj2o99ksEneMRlYEZa-28" target="1wDj2o99ksEneMRlYEZa-9">
          <mxGeometry width="50" height="50" relative="1" as="geometry">
            <mxPoint x="920" y="710" as="sourcePoint" />
            <mxPoint x="890" y="730" as="targetPoint" />
          </mxGeometry>
        </mxCell>
        <mxCell id="1wDj2o99ksEneMRlYEZa-76" value="" style="endArrow=classic;html=1;rounded=0;exitX=0.5;exitY=1;exitDx=0;exitDy=0;entryX=0.5;entryY=0;entryDx=0;entryDy=0;" edge="1" parent="1" source="1wDj2o99ksEneMRlYEZa-27" target="1wDj2o99ksEneMRlYEZa-10">
          <mxGeometry width="50" height="50" relative="1" as="geometry">
            <mxPoint x="920" y="710" as="sourcePoint" />
            <mxPoint x="950" y="730" as="targetPoint" />
          </mxGeometry>
        </mxCell>
        <mxCell id="1wDj2o99ksEneMRlYEZa-77" value="" style="endArrow=classic;html=1;rounded=0;exitX=0.5;exitY=1;exitDx=0;exitDy=0;entryX=0.5;entryY=0;entryDx=0;entryDy=0;" edge="1" parent="1" source="1wDj2o99ksEneMRlYEZa-27" target="1wDj2o99ksEneMRlYEZa-11">
          <mxGeometry width="50" height="50" relative="1" as="geometry">
            <mxPoint x="930" y="720" as="sourcePoint" />
            <mxPoint x="960" y="740" as="targetPoint" />
          </mxGeometry>
        </mxCell>
        <mxCell id="1wDj2o99ksEneMRlYEZa-78" value="" style="endArrow=classic;html=1;rounded=0;exitX=0.5;exitY=1;exitDx=0;exitDy=0;entryX=0.5;entryY=0;entryDx=0;entryDy=0;" edge="1" parent="1" source="1wDj2o99ksEneMRlYEZa-26" target="1wDj2o99ksEneMRlYEZa-12">
          <mxGeometry width="50" height="50" relative="1" as="geometry">
            <mxPoint x="1040" y="710" as="sourcePoint" />
            <mxPoint x="1070" y="730" as="targetPoint" />
          </mxGeometry>
        </mxCell>
        <mxCell id="1wDj2o99ksEneMRlYEZa-79" value="" style="endArrow=classic;html=1;rounded=0;exitX=0.5;exitY=1;exitDx=0;exitDy=0;entryX=0.5;entryY=0;entryDx=0;entryDy=0;" edge="1" parent="1" source="1wDj2o99ksEneMRlYEZa-26" target="1wDj2o99ksEneMRlYEZa-13">
          <mxGeometry width="50" height="50" relative="1" as="geometry">
            <mxPoint x="1160" y="710" as="sourcePoint" />
            <mxPoint x="1130" y="730" as="targetPoint" />
          </mxGeometry>
        </mxCell>
        <mxCell id="1wDj2o99ksEneMRlYEZa-80" value="" style="endArrow=classic;html=1;rounded=0;entryX=0.5;entryY=0;entryDx=0;entryDy=0;exitX=0.5;exitY=1;exitDx=0;exitDy=0;" edge="1" parent="1" source="1wDj2o99ksEneMRlYEZa-59" target="1wDj2o99ksEneMRlYEZa-58">
          <mxGeometry width="50" height="50" relative="1" as="geometry">
            <mxPoint x="1280" y="620" as="sourcePoint" />
            <mxPoint x="1230" y="670" as="targetPoint" />
          </mxGeometry>
        </mxCell>
        <mxCell id="1wDj2o99ksEneMRlYEZa-81" value="" style="endArrow=classic;html=1;rounded=0;exitX=0.5;exitY=1;exitDx=0;exitDy=0;entryX=0.5;entryY=0;entryDx=0;entryDy=0;" edge="1" parent="1" source="1wDj2o99ksEneMRlYEZa-25" target="1wDj2o99ksEneMRlYEZa-14">
          <mxGeometry width="50" height="50" relative="1" as="geometry">
            <mxPoint x="1250" y="730" as="sourcePoint" />
            <mxPoint x="1240" y="680" as="targetPoint" />
          </mxGeometry>
        </mxCell>
        <mxCell id="1wDj2o99ksEneMRlYEZa-82" value="" style="endArrow=classic;html=1;rounded=0;exitX=0.5;exitY=1;exitDx=0;exitDy=0;entryX=0.5;entryY=0;entryDx=0;entryDy=0;" edge="1" parent="1" source="1wDj2o99ksEneMRlYEZa-25" target="1wDj2o99ksEneMRlYEZa-15">
          <mxGeometry width="50" height="50" relative="1" as="geometry">
            <mxPoint x="1340" y="710" as="sourcePoint" />
            <mxPoint x="1310" y="730" as="targetPoint" />
          </mxGeometry>
        </mxCell>
        <mxCell id="1wDj2o99ksEneMRlYEZa-83" value="" style="endArrow=classic;html=1;rounded=0;exitX=0.5;exitY=1;exitDx=0;exitDy=0;entryX=0.5;entryY=0;entryDx=0;entryDy=0;" edge="1" parent="1" source="1wDj2o99ksEneMRlYEZa-24" target="1wDj2o99ksEneMRlYEZa-16">
          <mxGeometry width="50" height="50" relative="1" as="geometry">
            <mxPoint x="1340" y="710" as="sourcePoint" />
            <mxPoint x="1370" y="730" as="targetPoint" />
          </mxGeometry>
        </mxCell>
        <mxCell id="1wDj2o99ksEneMRlYEZa-84" value="" style="endArrow=classic;html=1;rounded=0;exitX=0.5;exitY=1;exitDx=0;exitDy=0;entryX=0.5;entryY=0;entryDx=0;entryDy=0;" edge="1" parent="1" source="1wDj2o99ksEneMRlYEZa-24" target="1wDj2o99ksEneMRlYEZa-17">
          <mxGeometry width="50" height="50" relative="1" as="geometry">
            <mxPoint x="1460" y="710" as="sourcePoint" />
            <mxPoint x="1480" y="710" as="targetPoint" />
          </mxGeometry>
        </mxCell>
        <mxCell id="1wDj2o99ksEneMRlYEZa-85" value="" style="endArrow=classic;html=1;rounded=0;exitX=0.5;exitY=1;exitDx=0;exitDy=0;entryX=0.5;entryY=0;entryDx=0;entryDy=0;" edge="1" parent="1" source="1wDj2o99ksEneMRlYEZa-23" target="1wDj2o99ksEneMRlYEZa-18">
          <mxGeometry width="50" height="50" relative="1" as="geometry">
            <mxPoint x="1460" y="710" as="sourcePoint" />
            <mxPoint x="1490" y="730" as="targetPoint" />
          </mxGeometry>
        </mxCell>
        <mxCell id="1wDj2o99ksEneMRlYEZa-86" value="" style="endArrow=classic;html=1;rounded=0;exitX=0.5;exitY=1;exitDx=0;exitDy=0;entryX=0.5;entryY=0;entryDx=0;entryDy=0;" edge="1" parent="1" source="1wDj2o99ksEneMRlYEZa-23" target="1wDj2o99ksEneMRlYEZa-19">
          <mxGeometry width="50" height="50" relative="1" as="geometry">
            <mxPoint x="1580" y="710" as="sourcePoint" />
            <mxPoint x="1550" y="730" as="targetPoint" />
          </mxGeometry>
        </mxCell>
        <mxCell id="1wDj2o99ksEneMRlYEZa-87" value="" style="endArrow=classic;html=1;rounded=0;exitX=0.5;exitY=1;exitDx=0;exitDy=0;entryX=0.5;entryY=0;entryDx=0;entryDy=0;" edge="1" parent="1" source="1wDj2o99ksEneMRlYEZa-22" target="1wDj2o99ksEneMRlYEZa-20">
          <mxGeometry width="50" height="50" relative="1" as="geometry">
            <mxPoint x="1580" y="710" as="sourcePoint" />
            <mxPoint x="1610" y="730" as="targetPoint" />
          </mxGeometry>
        </mxCell>
        <mxCell id="1wDj2o99ksEneMRlYEZa-88" value="" style="endArrow=classic;html=1;rounded=0;exitX=0.5;exitY=1;exitDx=0;exitDy=0;entryX=0.5;entryY=0;entryDx=0;entryDy=0;" edge="1" parent="1" source="1wDj2o99ksEneMRlYEZa-22" target="1wDj2o99ksEneMRlYEZa-21">
          <mxGeometry width="50" height="50" relative="1" as="geometry">
            <mxPoint x="1700" y="710" as="sourcePoint" />
            <mxPoint x="1670" y="730" as="targetPoint" />
          </mxGeometry>
        </mxCell>
        <mxCell id="1wDj2o99ksEneMRlYEZa-89" value="" style="endArrow=classic;html=1;rounded=0;exitX=0.5;exitY=1;exitDx=0;exitDy=0;entryX=0.5;entryY=0;entryDx=0;entryDy=0;" edge="1" parent="1" source="1wDj2o99ksEneMRlYEZa-34" target="1wDj2o99ksEneMRlYEZa-22">
          <mxGeometry width="50" height="50" relative="1" as="geometry">
            <mxPoint x="1710" y="720" as="sourcePoint" />
            <mxPoint x="1680" y="740" as="targetPoint" />
          </mxGeometry>
        </mxCell>
        <mxCell id="1wDj2o99ksEneMRlYEZa-90" value="" style="endArrow=classic;html=1;rounded=0;exitX=0.5;exitY=1;exitDx=0;exitDy=0;entryX=0.5;entryY=0;entryDx=0;entryDy=0;" edge="1" parent="1" source="1wDj2o99ksEneMRlYEZa-34" target="1wDj2o99ksEneMRlYEZa-23">
          <mxGeometry width="50" height="50" relative="1" as="geometry">
            <mxPoint x="1640" y="650" as="sourcePoint" />
            <mxPoint x="1700" y="670" as="targetPoint" />
          </mxGeometry>
        </mxCell>
        <mxCell id="1wDj2o99ksEneMRlYEZa-91" value="" style="endArrow=classic;html=1;rounded=0;exitX=0.5;exitY=1;exitDx=0;exitDy=0;entryX=0.5;entryY=0;entryDx=0;entryDy=0;" edge="1" parent="1" source="1wDj2o99ksEneMRlYEZa-36" target="1wDj2o99ksEneMRlYEZa-24">
          <mxGeometry width="50" height="50" relative="1" as="geometry">
            <mxPoint x="1640" y="650" as="sourcePoint" />
            <mxPoint x="1580" y="670" as="targetPoint" />
          </mxGeometry>
        </mxCell>
        <mxCell id="1wDj2o99ksEneMRlYEZa-92" value="" style="endArrow=classic;html=1;rounded=0;exitX=0.5;exitY=1;exitDx=0;exitDy=0;entryX=0.5;entryY=0;entryDx=0;entryDy=0;" edge="1" parent="1" source="1wDj2o99ksEneMRlYEZa-36" target="1wDj2o99ksEneMRlYEZa-25">
          <mxGeometry width="50" height="50" relative="1" as="geometry">
            <mxPoint x="1400" y="650" as="sourcePoint" />
            <mxPoint x="1460" y="670" as="targetPoint" />
          </mxGeometry>
        </mxCell>
        <mxCell id="1wDj2o99ksEneMRlYEZa-93" value="" style="endArrow=classic;html=1;rounded=0;exitX=0.5;exitY=1;exitDx=0;exitDy=0;entryX=0.5;entryY=0;entryDx=0;entryDy=0;" edge="1" parent="1" source="1wDj2o99ksEneMRlYEZa-52" target="1wDj2o99ksEneMRlYEZa-36">
          <mxGeometry width="50" height="50" relative="1" as="geometry">
            <mxPoint x="1400" y="650" as="sourcePoint" />
            <mxPoint x="1340" y="670" as="targetPoint" />
          </mxGeometry>
        </mxCell>
        <mxCell id="1wDj2o99ksEneMRlYEZa-94" value="" style="endArrow=classic;html=1;rounded=0;exitX=0.5;exitY=1;exitDx=0;exitDy=0;entryX=0.5;entryY=0;entryDx=0;entryDy=0;" edge="1" parent="1" source="1wDj2o99ksEneMRlYEZa-52" target="1wDj2o99ksEneMRlYEZa-34">
          <mxGeometry width="50" height="50" relative="1" as="geometry">
            <mxPoint x="1520" y="590" as="sourcePoint" />
            <mxPoint x="1400" y="610" as="targetPoint" />
          </mxGeometry>
        </mxCell>
        <mxCell id="1wDj2o99ksEneMRlYEZa-95" value="" style="endArrow=classic;html=1;rounded=0;entryX=0.5;entryY=0;entryDx=0;entryDy=0;exitX=0.5;exitY=1;exitDx=0;exitDy=0;" edge="1" parent="1" source="1wDj2o99ksEneMRlYEZa-59" target="1wDj2o99ksEneMRlYEZa-52">
          <mxGeometry width="50" height="50" relative="1" as="geometry">
            <mxPoint x="1170" y="490" as="sourcePoint" />
            <mxPoint x="1250" y="730" as="targetPoint" />
          </mxGeometry>
        </mxCell>
        <mxCell id="1wDj2o99ksEneMRlYEZa-96" value="" style="endArrow=classic;html=1;rounded=0;exitX=0.5;exitY=1;exitDx=0;exitDy=0;entryX=0.5;entryY=0;entryDx=0;entryDy=0;" edge="1" parent="1" source="1wDj2o99ksEneMRlYEZa-38" target="1wDj2o99ksEneMRlYEZa-26">
          <mxGeometry width="50" height="50" relative="1" as="geometry">
            <mxPoint x="1160" y="710" as="sourcePoint" />
            <mxPoint x="1190" y="730" as="targetPoint" />
          </mxGeometry>
        </mxCell>
        <mxCell id="1wDj2o99ksEneMRlYEZa-97" value="" style="endArrow=classic;html=1;rounded=0;exitX=0.5;exitY=1;exitDx=0;exitDy=0;entryX=0.5;entryY=0;entryDx=0;entryDy=0;" edge="1" parent="1" source="1wDj2o99ksEneMRlYEZa-38" target="1wDj2o99ksEneMRlYEZa-27">
          <mxGeometry width="50" height="50" relative="1" as="geometry">
            <mxPoint x="1100" y="650" as="sourcePoint" />
            <mxPoint x="1160" y="670" as="targetPoint" />
          </mxGeometry>
        </mxCell>
        <mxCell id="1wDj2o99ksEneMRlYEZa-98" value="" style="endArrow=classic;html=1;rounded=0;exitX=0.5;exitY=1;exitDx=0;exitDy=0;entryX=0.5;entryY=0;entryDx=0;entryDy=0;" edge="1" parent="1" source="1wDj2o99ksEneMRlYEZa-54" target="1wDj2o99ksEneMRlYEZa-40">
          <mxGeometry width="50" height="50" relative="1" as="geometry">
            <mxPoint x="990" y="610" as="sourcePoint" />
            <mxPoint x="930" y="630" as="targetPoint" />
          </mxGeometry>
        </mxCell>
        <mxCell id="1wDj2o99ksEneMRlYEZa-99" value="" style="endArrow=classic;html=1;rounded=0;exitX=0.5;exitY=1;exitDx=0;exitDy=0;entryX=0.5;entryY=0;entryDx=0;entryDy=0;" edge="1" parent="1" source="1wDj2o99ksEneMRlYEZa-54" target="1wDj2o99ksEneMRlYEZa-38">
          <mxGeometry width="50" height="50" relative="1" as="geometry">
            <mxPoint x="980" y="590" as="sourcePoint" />
            <mxPoint x="860" y="610" as="targetPoint" />
          </mxGeometry>
        </mxCell>
        <mxCell id="1wDj2o99ksEneMRlYEZa-100" value="" style="endArrow=classic;html=1;rounded=0;exitX=0.5;exitY=1;exitDx=0;exitDy=0;entryX=0.5;entryY=0;entryDx=0;entryDy=0;" edge="1" parent="1" source="1wDj2o99ksEneMRlYEZa-40" target="1wDj2o99ksEneMRlYEZa-28">
          <mxGeometry width="50" height="50" relative="1" as="geometry">
            <mxPoint x="980" y="590" as="sourcePoint" />
            <mxPoint x="1100" y="610" as="targetPoint" />
          </mxGeometry>
        </mxCell>
        <mxCell id="1wDj2o99ksEneMRlYEZa-101" value="" style="endArrow=classic;html=1;rounded=0;exitX=0.5;exitY=1;exitDx=0;exitDy=0;entryX=0.5;entryY=0;entryDx=0;entryDy=0;" edge="1" parent="1" source="1wDj2o99ksEneMRlYEZa-40" target="1wDj2o99ksEneMRlYEZa-29">
          <mxGeometry width="50" height="50" relative="1" as="geometry">
            <mxPoint x="860" y="650" as="sourcePoint" />
            <mxPoint x="920" y="670" as="targetPoint" />
          </mxGeometry>
        </mxCell>
        <mxCell id="1wDj2o99ksEneMRlYEZa-102" value="" style="endArrow=classic;html=1;rounded=0;exitX=0.5;exitY=1;exitDx=0;exitDy=0;entryX=0.5;entryY=0;entryDx=0;entryDy=0;" edge="1" parent="1" source="1wDj2o99ksEneMRlYEZa-42" target="1wDj2o99ksEneMRlYEZa-31">
          <mxGeometry width="50" height="50" relative="1" as="geometry">
            <mxPoint x="860" y="650" as="sourcePoint" />
            <mxPoint x="800" y="670" as="targetPoint" />
          </mxGeometry>
        </mxCell>
        <mxCell id="1wDj2o99ksEneMRlYEZa-103" value="" style="endArrow=classic;html=1;rounded=0;exitX=0.5;exitY=1;exitDx=0;exitDy=0;entryX=0.5;entryY=0;entryDx=0;entryDy=0;" edge="1" parent="1" source="1wDj2o99ksEneMRlYEZa-42" target="1wDj2o99ksEneMRlYEZa-30">
          <mxGeometry width="50" height="50" relative="1" as="geometry">
            <mxPoint x="620" y="650" as="sourcePoint" />
            <mxPoint x="680" y="620" as="targetPoint" />
          </mxGeometry>
        </mxCell>
        <mxCell id="1wDj2o99ksEneMRlYEZa-104" value="" style="endArrow=classic;html=1;rounded=0;exitX=0.5;exitY=1;exitDx=0;exitDy=0;entryX=0.5;entryY=0;entryDx=0;entryDy=0;" edge="1" parent="1" source="1wDj2o99ksEneMRlYEZa-56" target="1wDj2o99ksEneMRlYEZa-42">
          <mxGeometry width="50" height="50" relative="1" as="geometry">
            <mxPoint x="630" y="660" as="sourcePoint" />
            <mxPoint x="570" y="680" as="targetPoint" />
          </mxGeometry>
        </mxCell>
        <mxCell id="1wDj2o99ksEneMRlYEZa-105" value="" style="endArrow=classic;html=1;rounded=0;exitX=0.5;exitY=1;exitDx=0;exitDy=0;entryX=0.5;entryY=0;entryDx=0;entryDy=0;" edge="1" parent="1" source="1wDj2o99ksEneMRlYEZa-56" target="1wDj2o99ksEneMRlYEZa-32">
          <mxGeometry width="50" height="50" relative="1" as="geometry">
            <mxPoint x="640" y="670" as="sourcePoint" />
            <mxPoint x="580" y="690" as="targetPoint" />
          </mxGeometry>
        </mxCell>
        <mxCell id="1wDj2o99ksEneMRlYEZa-106" value="" style="endArrow=classic;html=1;rounded=0;exitX=0.5;exitY=1;exitDx=0;exitDy=0;entryX=0.5;entryY=0;entryDx=0;entryDy=0;" edge="1" parent="1" source="1wDj2o99ksEneMRlYEZa-57" target="1wDj2o99ksEneMRlYEZa-43">
          <mxGeometry width="50" height="50" relative="1" as="geometry">
            <mxPoint x="500" y="590" as="sourcePoint" />
            <mxPoint x="440" y="670" as="targetPoint" />
          </mxGeometry>
        </mxCell>
        <mxCell id="1wDj2o99ksEneMRlYEZa-107" value="" style="endArrow=classic;html=1;rounded=0;exitX=0.5;exitY=1;exitDx=0;exitDy=0;entryX=0.5;entryY=0;entryDx=0;entryDy=0;" edge="1" parent="1" source="1wDj2o99ksEneMRlYEZa-57" target="1wDj2o99ksEneMRlYEZa-33">
          <mxGeometry width="50" height="50" relative="1" as="geometry">
            <mxPoint x="260" y="490" as="sourcePoint" />
            <mxPoint x="200" y="670" as="targetPoint" />
          </mxGeometry>
        </mxCell>
        <mxCell id="1wDj2o99ksEneMRlYEZa-108" value="" style="endArrow=classic;html=1;rounded=0;entryX=0.5;entryY=0;entryDx=0;entryDy=0;exitX=0.5;exitY=1;exitDx=0;exitDy=0;" edge="1" parent="1" source="1wDj2o99ksEneMRlYEZa-60" target="1wDj2o99ksEneMRlYEZa-54">
          <mxGeometry width="50" height="50" relative="1" as="geometry">
            <mxPoint x="1170" y="490" as="sourcePoint" />
            <mxPoint x="1250" y="730" as="targetPoint" />
          </mxGeometry>
        </mxCell>
        <mxCell id="1wDj2o99ksEneMRlYEZa-109" value="" style="endArrow=classic;html=1;rounded=0;entryX=0.5;entryY=0;entryDx=0;entryDy=0;exitX=0.5;exitY=1;exitDx=0;exitDy=0;" edge="1" parent="1" source="1wDj2o99ksEneMRlYEZa-60" target="1wDj2o99ksEneMRlYEZa-56">
          <mxGeometry width="50" height="50" relative="1" as="geometry">
            <mxPoint x="740" y="490" as="sourcePoint" />
            <mxPoint x="980" y="550" as="targetPoint" />
          </mxGeometry>
        </mxCell>
        <mxCell id="1wDj2o99ksEneMRlYEZa-110" value="&lt;span&gt;43&lt;/span&gt;" style="ellipse;whiteSpace=wrap;html=1;rounded=0;shadow=1;comic=0;labelBackgroundColor=none;strokeWidth=1;fontFamily=Verdana;fontSize=12;align=center;" vertex="1" parent="1">
          <mxGeometry x="790" y="130" width="40" height="40" as="geometry" />
        </mxCell>
        <mxCell id="1wDj2o99ksEneMRlYEZa-111" value="" style="endArrow=classic;html=1;rounded=0;entryX=0.5;entryY=0;entryDx=0;entryDy=0;exitX=0.5;exitY=1;exitDx=0;exitDy=0;" edge="1" parent="1" source="1wDj2o99ksEneMRlYEZa-61" target="1wDj2o99ksEneMRlYEZa-57">
          <mxGeometry width="50" height="50" relative="1" as="geometry">
            <mxPoint x="740" y="490" as="sourcePoint" />
            <mxPoint x="500" y="550" as="targetPoint" />
          </mxGeometry>
        </mxCell>
        <mxCell id="1wDj2o99ksEneMRlYEZa-112" value="" style="endArrow=classic;html=1;rounded=0;entryX=0.5;entryY=0;entryDx=0;entryDy=0;exitX=0.5;exitY=1;exitDx=0;exitDy=0;" edge="1" parent="1" source="1wDj2o99ksEneMRlYEZa-61" target="1wDj2o99ksEneMRlYEZa-60">
          <mxGeometry width="50" height="50" relative="1" as="geometry">
            <mxPoint x="490" y="350" as="sourcePoint" />
            <mxPoint x="260" y="450" as="targetPoint" />
          </mxGeometry>
        </mxCell>
        <mxCell id="1wDj2o99ksEneMRlYEZa-113" value="" style="endArrow=classic;html=1;rounded=0;entryX=0.5;entryY=0;entryDx=0;entryDy=0;exitX=0.5;exitY=1;exitDx=0;exitDy=0;" edge="1" parent="1" source="1wDj2o99ksEneMRlYEZa-110" target="1wDj2o99ksEneMRlYEZa-59">
          <mxGeometry width="50" height="50" relative="1" as="geometry">
            <mxPoint x="490" y="350" as="sourcePoint" />
            <mxPoint x="740" y="450" as="targetPoint" />
          </mxGeometry>
        </mxCell>
        <mxCell id="1wDj2o99ksEneMRlYEZa-114" value="" style="endArrow=classic;html=1;rounded=0;entryX=0.5;entryY=0;entryDx=0;entryDy=0;exitX=0.5;exitY=1;exitDx=0;exitDy=0;" edge="1" parent="1" source="1wDj2o99ksEneMRlYEZa-110" target="1wDj2o99ksEneMRlYEZa-61">
          <mxGeometry width="50" height="50" relative="1" as="geometry">
            <mxPoint x="820" y="180" as="sourcePoint" />
            <mxPoint x="1170" y="450" as="targetPoint" />
          </mxGeometry>
        </mxCell>
        <mxCell id="1wDj2o99ksEneMRlYEZa-115" value="0" style="text;html=1;align=center;verticalAlign=middle;whiteSpace=wrap;rounded=0;" vertex="1" parent="1">
          <mxGeometry x="740" y="160" width="60" height="30" as="geometry" />
        </mxCell>
        <mxCell id="1wDj2o99ksEneMRlYEZa-116" value="1" style="text;html=1;align=center;verticalAlign=middle;whiteSpace=wrap;rounded=0;" vertex="1" parent="1">
          <mxGeometry x="816" y="160" width="60" height="30" as="geometry" />
        </mxCell>
        <mxCell id="1wDj2o99ksEneMRlYEZa-117" value="0" style="text;html=1;align=center;verticalAlign=middle;whiteSpace=wrap;rounded=0;" vertex="1" parent="1">
          <mxGeometry x="1124" y="490" width="60" height="30" as="geometry" />
        </mxCell>
        <mxCell id="1wDj2o99ksEneMRlYEZa-118" value="1" style="text;html=1;align=center;verticalAlign=middle;whiteSpace=wrap;rounded=0;" vertex="1" parent="1">
          <mxGeometry x="1170" y="460" width="60" height="30" as="geometry" />
        </mxCell>
        <mxCell id="1wDj2o99ksEneMRlYEZa-119" value="0" style="text;html=1;align=center;verticalAlign=middle;whiteSpace=wrap;rounded=0;" vertex="1" parent="1">
          <mxGeometry x="414" y="330" width="60" height="30" as="geometry" />
        </mxCell>
        <mxCell id="1wDj2o99ksEneMRlYEZa-120" value="0" style="text;html=1;align=center;verticalAlign=middle;whiteSpace=wrap;rounded=0;" vertex="1" parent="1">
          <mxGeometry x="660" y="460" width="60" height="30" as="geometry" />
        </mxCell>
        <mxCell id="1wDj2o99ksEneMRlYEZa-123" value="1" style="text;html=1;align=center;verticalAlign=middle;whiteSpace=wrap;rounded=0;" vertex="1" parent="1">
          <mxGeometry x="730" y="460" width="60" height="30" as="geometry" />
        </mxCell>
        <mxCell id="1wDj2o99ksEneMRlYEZa-124" value="1" style="text;html=1;align=center;verticalAlign=middle;whiteSpace=wrap;rounded=0;" vertex="1" parent="1">
          <mxGeometry x="490" y="330" width="60" height="30" as="geometry" />
        </mxCell>
      </root>
    </mxGraphModel>
  </diagram>
</mxfile>
